<svg width="256" height="256" viewBox="0 0 256 256" fill="none" xmlns="http://www.w3.org/2000/svg">
<path d="M103.3 8.59995C75.7 12.2 55.9 40 55.9 75C55.9 106.9 73.6 133.7 99.4 140.6C104.7 142.1 115.4 142.1 121.2 140.6C130.3 138.4 138.2 133.8 144.9 127C156.6 115.2 163.3 98 164 78.2C164.5 62.8 161.8 50 155.6 37.8C148.7 24.3 137 14 124.2 10.1C118.1 8.39995 109.8 7.79995 103.3 8.59995Z" fill="#CA9969"/>
<path d="M46.9 139.8C33.8 149.5 23.2 159.6 19.7 165.5C13.9 175.4 10 194.4 10 212.5C10 216.8 10.1 217.8 10.9 219.1C12.6 221.9 19 226.4 26.6 230.2C55.2 244.5 100.1 251.1 135.2 246.2C140.4 245.5 151.9 243.2 152.2 242.9C152.3 242.8 151.5 241.8 150.3 240.7C147.2 237.7 146 235.2 146 231.2C146 229.4 146.1 227.4 146.3 226.7C146.7 225.5 146.6 225.5 143.5 225C139.8 224.4 136.7 222.6 134.6 219.9C132.4 217.1 129.1 206.8 129.1 203.2C129.1 199.6 131.4 194.9 133.9 193.1L135.6 191.8L133.2 189.5C128.7 185.1 128 180.2 130.8 172C131.7 169.4 132.3 167.2 132.1 167.2C131.9 167.2 130.2 167.7 128.3 168.3C120.2 170.9 108.4 171.7 99.9 170.2C82.9 167.3 66.3 156.1 55.8 140.3L52.5 135.3L46.9 139.8Z" fill="#CA9969"/>
<path d="M186.5 137.7C185.8 138.3 184.9 140.6 183.5 145.4C182.4 149.2 181.3 152.5 181.2 152.8C180.6 153.7 179.4 153.3 177 151.4C165.7 142.7 166.7 143 160.8 147.2C155 151.3 155 151.2 158 159.3C160.4 166.1 160.8 167.9 159.8 168.3C159.5 168.4 155.8 168.4 151.7 168.3C144.5 168.1 144.1 168.1 143.2 169C142.2 170 139.4 178.1 139.4 180C139.4 181.6 140 182.2 146.6 186.6C151.5 189.9 152.6 190.9 152.5 191.7C152.4 192.4 150.6 193.9 147 196.3C140.4 200.8 139.5 201.6 139.5 203.2C139.5 205.3 142.4 213.3 143.4 214.2C144.2 214.9 145.3 215 151.9 215C156.1 215 159.7 215 160 215C161 215.1 160.6 217.1 158.2 223.8C156.6 228.3 155.9 230.8 156.1 231.6C156.3 232.7 162 237.2 165.1 238.9C166.6 239.7 167.7 239.1 173.9 234.4C177.1 231.9 180 230 180.5 230.1C181.1 230.2 181.9 232.2 183.5 237.5C185 242.6 186 245 186.7 245.6C187.5 246.3 188.7 246.4 193.1 246.4C200.2 246.4 200.1 246.4 202.7 237.6C203.9 233.5 205 230.7 205.5 230.4C206.1 230 207.4 230.7 212.2 234.4C216.2 237.5 218.5 238.9 219.4 238.9C221.3 238.9 229.6 232.7 229.9 231C230.1 230.1 229.5 227.7 227.8 223.2C225.3 216.3 225.2 215.7 226 215.1C226.3 214.9 229.8 214.8 233.8 214.9C239.3 215 241.3 214.9 241.9 214.4C242.8 213.7 246 204.7 246 202.7C246 201.2 244.4 199.8 237.7 195.3C234.9 193.5 233.3 192.1 233.3 191.6C233.3 191 235.3 189.4 239.1 186.8C245.5 182.4 246 182 246 180.2C246 178.3 242.9 169.4 241.9 168.6C241.2 168.1 239.5 168 233.6 168.1C227.1 168.2 226.1 168.1 225.7 167.5C225.3 166.9 225.8 165.1 227.7 159.9C229.9 153.9 230.1 152.9 229.7 151.8C229 150.2 220.8 144.2 219.3 144.2C218.6 144.2 216 145.8 212.4 148.6C209.2 151 206.2 153 205.8 153C204.8 153 204.5 152.2 202.3 144.6C200.1 136.7 200 136.6 193 136.6C188.5 136.8 187.4 137 186.5 137.7ZM201.3 173.4C205.5 175.4 208.8 178.8 210.9 183C212.4 186.1 212.5 186.5 212.5 191.7C212.5 196.8 212.4 197.3 211 200.3C203.6 215.8 181.5 215.8 174.2 200.3C172.8 197.3 172.7 196.8 172.7 191.7C172.7 186.8 172.8 186.1 174 183.6C175.7 179.9 178.1 177 181.2 175C185.3 172.2 187.9 171.5 193.3 171.7C197.6 171.7 198.4 171.9 201.3 173.4Z" fill="#CA9969"/>
</svg>
