<svg width="100" height="100" viewBox="0 0 100 100" fill="none" xmlns="http://www.w3.org/2000/svg">
<path d="M43.444 1.46612C43.027 1.75112 42.479 2.25512 42.238 2.58412C41.777 3.19812 41.777 3.43912 41.712 14.7102L41.646 26.2002L47.194 26.1562L52.742 26.0902L52.808 15.1262C52.874 2.84712 52.874 2.84712 51.361 1.68412C50.615 1.11412 50.484 1.09212 47.392 1.02612C44.343 0.961121 44.145 0.983122 43.444 1.46612Z" fill="white"/>
<path d="M27.327 6.68394C26.516 6.94694 25.463 7.91194 25.09 8.81094C24.849 9.38094 24.783 11.267 24.783 17.867V26.2H30.375H35.967V17.889C35.967 12.539 35.879 9.33694 35.726 8.94294C35.397 8.02194 34.235 6.92594 33.336 6.68494C32.414 6.42094 28.204 6.42094 27.327 6.68394Z" fill="white"/>
<path d="M60.6131 6.88189C60.1091 7.10089 59.4731 7.62789 59.1881 8.02189L58.6621 8.76789V22.6039V36.4398L59.3201 37.5139C60.1091 38.7639 61.7981 39.8819 63.2231 40.1009C66.0521 40.5399 68.8591 38.6099 69.4941 35.8469C69.6471 35.2329 69.7131 30.1239 69.7131 22.3609C69.7131 9.20389 69.6911 8.83189 68.7041 7.73489C67.8711 6.76989 66.7311 6.46289 64.0331 6.46289C62.0381 6.46489 61.3151 6.55289 60.6131 6.88189Z" fill="white"/>
<path d="M77.2119 15.3901C76.8169 15.5871 76.2249 16.1351 75.8959 16.6401L75.3259 17.5171V29.4671C75.3259 41.1551 75.3259 41.4621 75.7869 42.4261C76.9929 45.0351 79.8869 46.3071 82.7159 45.4521C83.8339 45.1231 85.3689 43.7641 85.9389 42.5801C86.3999 41.6591 86.3999 41.3521 86.3999 29.5551V17.4951L85.8959 16.7491C85.6329 16.3541 85.0629 15.7841 84.6679 15.5211C83.9879 15.0611 83.6809 15.0171 80.9399 15.0171C78.6159 15.0171 77.8039 15.1051 77.2119 15.3901Z" fill="white"/>
<path d="M17.1301 32.2079C15.9681 32.6249 14.6961 33.8309 14.1261 35.0589L13.6001 36.1769V45.1669C13.6001 55.0559 13.6881 55.8889 14.9161 58.1919C15.2891 58.8719 19.1041 63.8059 23.4021 69.1779C31.6251 79.4619 32.6991 80.9309 33.9271 83.5839C35.2861 86.5219 35.7911 88.9559 35.9001 93.1879C36.0101 97.1789 36.1411 97.8809 37.0181 98.5599C37.5441 98.9989 38.0051 98.9989 57.0381 98.9989H76.5321L77.2341 98.3629L77.9581 97.7269L78.0681 91.4989C78.1781 84.8989 78.1991 84.8329 79.3621 83.5829C80.1511 82.7279 80.4361 82.5959 82.3661 82.2229C84.2961 81.8499 85.3041 81.2139 85.9621 79.9209C86.3791 79.0879 86.4011 78.6049 86.4011 66.9399C86.4011 59.2649 86.3131 54.5069 86.1821 54.0029C85.8301 52.7979 84.6901 51.4389 83.4401 50.7369C82.8261 50.4079 77.6291 48.7199 71.5991 46.9219C60.1311 43.4569 59.1661 43.2599 57.4121 44.0269C56.9731 44.2019 54.8241 45.6929 52.6541 47.3379C47.1711 51.4609 47.5881 51.2849 43.2021 51.3729C38.9701 51.4609 38.8161 51.5269 38.8161 53.2149C38.8161 53.7849 38.7501 54.2679 38.6621 54.2679C38.5521 54.2459 37.4561 53.6759 36.1841 52.9959C33.5311 51.5489 33.1141 50.9999 33.1141 48.9829C33.1141 48.0619 33.2461 47.5579 33.6181 47.0099C34.4511 45.7819 34.7141 45.7159 40.0651 45.7159C44.2531 45.7159 45.1081 45.6499 46.2921 45.2989C48.7481 44.5319 50.6121 42.9089 51.7961 40.5629C52.5851 39.0059 52.8491 37.5149 52.8491 34.5329V31.9019L35.3731 31.9239C22.2181 31.9229 17.7001 32.0109 17.1301 32.2079Z" fill="white"/>
</svg>
