<svg width="100" height="100" viewBox="0 0 100 100" fill="none" xmlns="http://www.w3.org/2000/svg">
<path d="M81.4311 7.32197L74.8471 13.906L75.1151 16.011L75.3631 18.137L62.3191 31.181L49.2761 44.225L47.9551 44.019C41.9491 43.131 36.5211 48.683 37.5121 54.689C38.1721 58.734 41.1651 61.768 45.1691 62.491C49.8951 63.337 54.5601 60.283 55.7981 55.556C56.1491 54.214 56.1901 52.646 55.9221 51.511L55.7571 50.747L68.8001 37.703L81.8641 24.639L83.9901 24.887L86.0951 25.155L92.6791 18.571C96.2911 14.959 99.1391 11.987 98.9941 11.946C98.8491 11.925 96.6411 11.636 94.1021 11.286C91.5641 10.956 89.4381 10.646 89.3961 10.584C89.3551 10.543 89.0251 8.41696 88.6941 5.87796C88.3641 3.35996 88.0751 1.15197 88.0341 1.00697C88.0151 0.861968 85.0431 3.71097 81.4311 7.32197Z" fill="#CA9969"/>
<path d="M44.5502 7.48703C37.8422 7.94103 32.3322 9.36503 26.6972 12.11C22.0952 14.339 18.4832 16.878 14.8502 20.427C7.89523 27.217 3.56023 35.266 1.70323 44.925C1.04323 48.29 0.795227 54.874 1.18723 58.28C2.38423 68.517 6.69823 77.701 13.7352 84.966C21.1442 92.644 30.2872 97.267 40.9162 98.691C44.8372 99.228 51.2562 99.042 55.0742 98.299C64.7542 96.441 72.7002 92.169 79.5722 85.152C81.9252 82.737 83.2252 81.148 85.0412 78.362C93.9572 64.761 94.9892 47.342 87.7032 32.791L86.5502 30.479L82.8562 34.173L79.1622 37.867L79.9052 39.58C81.9692 44.389 82.8562 50.106 82.4852 55.926C81.9282 64.512 78.2132 72.54 71.9592 78.711C66.6762 83.953 60.9382 86.987 53.2192 88.618C50.6812 89.155 43.2302 89.155 40.3202 88.597C30.6402 86.801 21.9932 81.023 16.5852 72.726C14.2732 69.155 12.4992 64.801 11.4872 60.178C11.0742 58.3 11.0332 57.454 11.0332 53.285C11.0332 49.116 11.0742 48.27 11.4872 46.371C13.1382 38.755 16.4202 32.791 21.8892 27.466C24.8612 24.556 27.4822 22.74 31.3422 20.924C36.5022 18.468 40.9602 17.477 46.8212 17.477C51.7332 17.477 55.8812 18.261 60.0922 19.995L62.1352 20.821L65.7262 17.25C67.7072 15.269 69.3172 13.576 69.3172 13.494C69.3172 13.246 64.1372 10.811 61.9902 10.047C56.8092 8.23003 49.5242 7.15703 44.5502 7.48703Z" fill="#CA9969"/>
<path d="M42.7952 26.372C32.7442 27.837 24.1792 35.04 20.9392 44.741C19.9482 47.712 19.6802 49.529 19.6802 53.285C19.6802 57.124 19.9482 58.754 21.0222 61.974C22.4252 66.143 24.3042 69.074 27.6062 72.376C28.9272 73.697 30.6612 75.204 31.4662 75.719C34.5832 77.783 38.5662 79.393 42.1782 80.053C44.0362 80.383 49.4022 80.383 51.2592 80.053C62.4022 78.031 71.0502 69.652 73.3412 58.651C73.8162 56.401 73.9602 52.274 73.6712 49.983C73.4442 48.229 72.7012 44.927 72.4952 44.72C72.4332 44.679 70.6792 46.35 68.5942 48.435L64.7762 52.253V53.615C64.7762 58.176 62.6502 62.985 59.1832 66.308C56.9132 68.454 54.7462 69.713 51.6292 70.663C50.0192 71.138 49.4832 71.2 46.8202 71.2C43.2502 71.2 41.5782 70.829 38.6472 69.363C32.2082 66.184 28.2862 59.394 28.7202 52.171C28.8652 49.715 29.2982 48.002 30.3092 45.835C31.4032 43.482 32.4762 41.976 34.3752 40.159C37.6362 37.042 42.0112 35.226 46.2422 35.226H47.7492L51.5672 31.408C53.6522 29.323 55.3232 27.548 55.2612 27.487C55.0752 27.322 51.9592 26.579 50.4112 26.352C48.7192 26.124 44.5292 26.124 42.7952 26.372Z" fill="#CA9969"/>
</svg>
