<?xml version="1.0" encoding="utf-8"?>
<!-- Svg Vector Icons : http://www.onlinewebfonts.com/icon -->
<!DOCTYPE svg PUBLIC "-//W3C//DTD SVG 1.1//EN" "http://www.w3.org/Graphics/SVG/1.1/DTD/svg11.dtd">
<svg version="1.1" xmlns="http://www.w3.org/2000/svg" xmlns:xlink="http://www.w3.org/1999/xlink" x="0px" y="0px" viewBox="0 0 256 256" enable-background="new 0 0 256 256" xml:space="preserve">
<metadata> Svg Vector Icons : http://www.onlinewebfonts.com/icon </metadata>
<g><g><path fill="#000000" d="M128,10C62.8,10,10,62.8,10,128c0,65.2,52.8,118,118,118c65.2,0,118-52.8,118-118C246,62.8,193.2,10,128,10z M128,231.3C71,231.3,24.8,185,24.8,128C24.8,71,71,24.7,128,24.7S231.3,71,231.3,128C231.3,185,185,231.3,128,231.3z M206.8,82.5l-5.1-5.3c-2.8-2.9-7.5-3-10.4-0.2l-85.1,81.7l-35.7-37.2c-2.8-2.9-7.5-3-10.4-0.2l-5.3,5.1c-2.9,2.8-3,7.5-0.2,10.4l40.9,42.6l5.1,5.3c2.8,2.9,7.5,3,10.4,0.2l95.7-91.9C209.6,90.1,209.7,85.4,206.8,82.5z"/></g></g>
</svg>