<svg width="256" height="256" viewBox="0 0 256 256" fill="none" xmlns="http://www.w3.org/2000/svg">
<path d="M34.9001 10.8999C34.0001 11.3999 28.2 16.8999 21.9 23.1999C9.70005 35.5999 9.50005 35.7999 10.2 39.8999C10.5 41.3999 15.3 46.3999 53.7001 84.7999L96.9 128L53.7001 171.2C15.3 209.6 10.5 214.6 10.2 216.1C9.50005 220.2 9.60005 220.4 21.9 232.7C28.2 239 34.1 244.5 35 245.1C36.9 246.1 38.8 246.2 40.8 245.5C41.5 245.2 60.9 226.3 85.1 202L128.1 159L171.1 202C195.3 226.2 214.6 245.2 215.4 245.5C217.3 246.2 219.2 246.1 221.2 245.1C223.3 244 244.4 222.8 245.4 220.8C246.2 219.1 246.3 217.1 245.7 215.3C245.4 214.6 226.5 195.2 202.2 171L159.2 128L202.2 84.9999C226.4 60.7999 245.4 41.4999 245.7 40.6999C246.4 38.7999 246.3 36.8999 245.3 34.8999C244.8 33.9999 239.3 28.0999 232.9 21.7999C220.6 9.59988 220.3 9.39988 216.3 10.0999C214.7 10.3999 209.8 15.1999 171.3 53.5999L128 96.8999L85 53.8999C60.8 29.6999 41.5 10.7999 40.8 10.4999C38.8 9.79988 36.7001 9.89988 34.9001 10.8999Z" fill="white"/>
</svg>
