<svg width="100" height="100" viewBox="0 0 100 100" fill="none" xmlns="http://www.w3.org/2000/svg">
<path d="M11.379 1.325C9.48399 1.976 8.08699 3.411 7.47499 5.325C7.18799 6.167 7.16899 10.339 7.20699 50.373L7.26399 94.484L7.74199 95.441C8.33499 96.666 9.48299 97.814 10.708 98.407C11.607 98.866 11.875 98.885 15.55 98.943L19.416 99V50.01V1H15.837C13.083 1.019 12.049 1.096 11.379 1.325Z" fill="#AD835A"/>
<path d="M25.541 49.9895V98.9805L56.983 98.9425L88.406 98.8855L89.363 98.4075C90.588 97.8145 91.736 96.6655 92.329 95.4415L92.807 94.4845V49.9895V5.49649L92.329 4.53949C91.736 3.31449 90.588 2.16649 89.363 1.57349L88.406 1.09549L56.983 1.03849L25.541 1.00049V49.9895ZM73.115 25.9925C74.416 26.9685 74.436 27.0065 74.436 31.6185C74.436 36.2305 74.417 36.2685 73.115 37.2445C72.598 37.6465 72.426 37.6465 59.222 37.6465C46.018 37.6465 45.845 37.6465 45.329 37.2445C44.047 36.3065 44.009 36.1535 43.951 32.1355C43.874 27.9065 43.932 27.4465 44.621 26.6245C45.597 25.4575 45.099 25.4955 59.452 25.5525C72.388 25.5905 72.599 25.5905 73.115 25.9925ZM73.115 44.3635C74.416 45.3395 74.436 45.3775 74.436 49.9895C74.436 54.6015 74.417 54.6395 73.115 55.6155C72.598 56.0175 72.426 56.0175 59.222 56.0175C46.018 56.0175 45.845 56.0175 45.329 55.6155C44.047 54.6775 44.009 54.5245 43.951 50.5055C43.874 46.2765 43.932 45.8165 44.621 44.9935C45.597 43.8265 45.099 43.8645 59.452 43.9215C72.388 43.9615 72.599 43.9615 73.115 44.3635Z" fill="#AD835A"/>
</svg>
