<svg width="100" height="100" viewBox="0 0 100 100" fill="none" xmlns="http://www.w3.org/2000/svg">
<path d="M69.6 1C53.36 1 40.2 6.48 40.2 13.25C40.2 20.02 53.36 25.5 69.6 25.5C85.84 25.5 99 20.02 99 13.25C99 6.48 85.84 1 69.6 1ZM40.2 18.15V27.95C40.2 34.81 53.43 40.2 69.6 40.2C85.77 40.2 99 34.81 99 27.95V18.15C99 25.01 85.77 30.4 69.6 30.4C53.43 30.4 40.2 25.01 40.2 18.15ZM99 32.39C99 39.74 85.77 45.1 69.6 45.1C53.43 45.1 40.2 39.71 40.2 32.85V40.66C51.96 42.13 62.28 47.09 64.24 54.44H69.6C85.77 54.44 99 49.05 99 42.19V32.39ZM30.4 45.1C14.23 45.1 1 50.49 1 57.35C1 64.21 14.23 69.6 30.4 69.6C46.57 69.6 59.8 64.21 59.8 57.35C59.8 50.49 46.57 45.1 30.4 45.1ZM99 47.55C99 54.41 85.77 59.8 69.6 59.8H64.7V69.6H69.6C85.77 69.6 99 64.21 99 57.35V47.55ZM1 62.25V72.05C1 78.91 14.23 84.3 30.4 84.3C46.57 84.3 59.8 78.91 59.8 72.05V62.25C59.8 69.11 46.57 74.5 30.4 74.5C14.23 74.5 1 69.11 1 62.25ZM99 62.25C99 69.11 85.77 74.5 69.6 74.5H64.7V84.3H69.6C85.77 84.3 99 78.91 99 72.05V62.25ZM1 76.95V86.75C1 93.61 14.23 99 30.4 99C46.57 99 59.8 93.61 59.8 86.75V76.95C59.8 83.81 46.57 89.2 30.4 89.2C14.23 89.2 1 83.81 1 76.95Z" fill="#0CBE54"/>
</svg>
