<svg width="256" height="256" viewBox="0 0 256 256" fill="none" xmlns="http://www.w3.org/2000/svg">
<path d="M187.8 119.2C187.4 118.9 187.1 118.6 186.6 118.4L145.5 77C141.3 72.8 134.5 72.8 130.3 77C126.1 81.2 126.1 88 130.3 92.2L155.4 117.4L74.2 117.3C68.3 117.3 63.5 122.1 63.5 128C63.5 133.9 68.3 138.7 74.2 138.7L154.9 138.8L130.3 163.5C126.1 167.7 126.1 174.5 130.3 178.7C134.5 182.9 141.3 182.9 145.5 178.7L186 138C189.9 136.4 192.7 132.6 192.7 128.1C192.6 124.4 190.7 121.1 187.8 119.2ZM128 10C62.8 10 10 62.8 10 128C10 193.2 62.8 246 128 246C193.2 246 246 193.2 246 128C246 62.8 193.2 10 128 10ZM127.8 224.5C74.4 224.5 31.1 181.2 31.1 127.8C31.1 74.4 74.4 31.1 127.8 31.1C181.2 31.1 224.5 74.4 224.5 127.8C224.5 181.2 181.2 224.5 127.8 224.5Z" fill="white"/>
</svg>
