<svg width="100" height="100" viewBox="0 0 100 100" fill="none" xmlns="http://www.w3.org/2000/svg">
<path d="M45.942 1.33287C43.034 2.06587 39.8989 3.98788 37.8259 6.28888C32.011 12.7619 32.5419 23.0519 39.0139 28.8929C40.8599 30.5619 43.8689 32.1549 46.1689 32.7109C48.5199 33.2419 52.616 33.0899 54.867 32.3569C59.696 30.7639 63.6409 26.7949 65.2839 21.8139C65.7639 20.3219 65.8649 19.5379 65.8399 16.8839C65.8399 14.1529 65.7389 13.4709 65.1569 11.8779C63.463 7.09888 59.9739 3.55988 55.1699 1.76388C53.0209 0.953881 48.293 0.75188 45.942 1.33287Z" fill="white"/>
<path d="M46.675 34.8604C41.542 35.3664 38.837 36.6304 35.247 40.2454C32.567 42.9504 31.075 45.1504 26.777 52.6854C22.352 60.4724 20.835 62.7734 18.636 65.0994C16.714 67.1224 15.197 68.1584 13.225 68.8664C11.202 69.5494 9.60904 70.8894 8.72504 72.6334C8.06804 73.9234 7.96704 74.3784 7.96704 76.1474C7.96704 77.7914 8.09304 78.4234 8.54804 79.3334C9.66104 81.4574 11.127 82.6204 13.403 83.2014L14.743 83.5554L14.693 85.4264C14.592 88.6884 16.21 92.3544 18.486 93.9724C21.217 95.9694 27.31 97.5124 36.539 98.5744C40.003 98.9534 54.086 99.1564 57.044 98.8524C59.977 98.5494 61.191 98.0434 62.455 96.6274C63.618 95.2874 64.048 94.1244 64.073 92.2274C64.098 90.2554 63.365 88.7134 61.949 87.8534C61.089 87.2974 60.887 87.2974 52.467 87.2974C43.668 87.2724 40.761 87.0444 35.982 86.0084C33.985 85.5784 33.504 85.1994 33.732 84.2894C33.934 83.4544 34.415 83.3284 36.235 83.7584C40.837 84.7954 43.416 84.9974 52.467 85.0224H61.316L62.504 85.7054C64.83 87.0954 66.246 89.6494 66.246 92.5324C66.246 94.5804 65.867 95.7184 64.704 97.2604C63.794 98.4734 63.768 98.5494 64.299 98.5494C65.69 98.5494 72.112 97.4624 74.792 96.7544C80.304 95.3384 82.63 93.7454 84.274 90.2564C85.007 88.7144 85.083 88.3354 85.083 86.1354V83.6824L86.372 83.4044C88.42 82.9494 90.215 81.5334 91.201 79.6114C91.909 78.2464 92.035 77.7654 92.035 76.2234C92.035 74.2004 91.555 72.8604 90.265 71.2424C89.557 70.3574 88.622 69.8014 85.587 68.4614C81.794 66.7924 79.14 63.4554 73.198 52.9114C68.318 44.2144 65.562 40.5984 61.441 37.4884C59.418 35.9464 56.966 35.1874 52.996 34.8334C49.886 34.5564 49.861 34.5564 46.675 34.8604ZM35.904 71.7994V78.4494H31.682C29.331 78.4494 26.929 78.5504 26.297 78.6514L25.159 78.8794L26.423 77.7924C30.039 74.6824 31.328 73.2154 32.516 70.8894C33.628 68.7404 35.676 65.1754 35.828 65.1754C35.879 65.1754 35.904 68.1584 35.904 71.7994ZM67.408 70.5104C68.799 73.2404 69.936 74.5554 73.704 77.7924L74.968 78.8794L73.83 78.6514C73.198 78.5504 70.796 78.4494 68.445 78.4494H64.223V71.7494L64.248 65.0494L65.133 66.4404C65.613 67.1984 66.649 69.0434 67.408 70.5104Z" fill="white"/>
</svg>
