<?xml version="1.0" encoding="utf-8"?>
<!-- Svg Vector Icons : http://www.onlinewebfonts.com/icon -->
<!DOCTYPE svg PUBLIC "-//W3C//DTD SVG 1.1//EN" "http://www.w3.org/Graphics/SVG/1.1/DTD/svg11.dtd">
<svg version="1.1" xmlns="http://www.w3.org/2000/svg" xmlns:xlink="http://www.w3.org/1999/xlink" x="0px" y="0px" viewBox="0 0 256 256" enable-background="new 0 0 256 256" xml:space="preserve">
<metadata> Svg Vector Icons : http://www.onlinewebfonts.com/icon </metadata>
<g><g><g><path fill="#000000" d="M212.1,10.4c-3,0.9-7.4,5.2-8.1,7.9c-0.3,1-0.5,5.9-0.5,11.3V39l-1.9-1.8c-16.6-15.8-42.5-25.5-70.2-26.4C90,9.4,51.7,29.3,29,64c-25.4,38.9-25.4,90.3,0.1,128.9c16.9,25.5,43.3,43.9,72.4,50.5c22.6,5.1,47,3.5,67.7-4.4c5.7-2.1,16.2-7.4,21-10.4c10.5-6.6,22.3-17.1,29.6-26.1c15-18.7,23.6-40.4,25.8-64.7c1-11.3,0-15.5-4.4-18.3c-2-1.3-2.6-1.4-6.2-1.4s-4.2,0.1-6.2,1.4c-1.5,1-2.6,2.2-3.6,3.8c-1.3,2.3-1.4,3-1.8,8.8c-0.8,13.3-3,22.8-7.7,33.8c-19.4,45.4-70.7,68.5-117.6,52.8c-23.4-7.8-42.8-24.4-54.3-46.4c-7.2-13.6-10.6-28-10.6-43.8c0-24.3,8.6-46.3,25.3-64.5c7.3-8,16.6-14.8,27.6-20.3c11.4-5.6,22.2-8.6,35.4-9.6c21.2-1.7,42.8,4.9,63,19l4.4,3.1l-11.4,0.2l-11.4,0.2l-2.6,1.8c-1.4,1-3.1,2.5-3.8,3.2c-5.6,6.7-2.8,15.9,5.8,19.3c2.6,1.1,2.7,1.1,27.8,1.1c23.6,0,25.3,0,27.5-0.9c3-1.2,5.7-3.7,7-6.5l1.1-2.3V45.6V18.8l-1.2-2.2c-1.4-2.8-3.8-4.9-7.1-6.1C217.9,9.5,215.3,9.4,212.1,10.4z"/></g></g></g>
</svg>