<svg width="50" height="51" viewBox="0 0 50 51" fill="none" xmlns="http://www.w3.org/2000/svg">
<mask id="mask0_4191_1580" style="mask-type:alpha" maskUnits="userSpaceOnUse" x="0" y="0" width="50" height="51">
<path d="M50 0.832031H0V50.832H50V0.832031Z" fill="white"/>
</mask>
<g mask="url(#mask0_4191_1580)">
<path d="M25.0105 1.33203C23.6555 1.33203 22.5605 2.43203 22.5605 3.78203V47.882C22.5605 49.237 23.6555 50.332 25.0105 50.332C26.3605 50.332 27.4605 49.237 27.4605 47.882V3.78203C27.4605 2.43203 26.3655 1.33203 25.0105 1.33203Z" fill="white"/>
<path d="M16.8197 39.434C16.0985 40.0401 16.0045 41.1166 16.6107 41.8412L23.1949 49.6866C23.8011 50.4078 24.8776 50.5018 25.6022 49.8957C26.3234 49.2895 26.4174 48.213 25.8112 47.4919L19.227 39.6465C18.6173 38.9253 17.5408 38.8313 16.8197 39.434Z" fill="white"/>
<path d="M33.1159 39.471C33.837 40.0772 33.9311 41.1536 33.3249 41.8783L26.7406 49.7237C26.1345 50.4448 25.058 50.5389 24.3334 49.9327C23.6122 49.3265 23.5182 48.25 24.1243 47.5289L30.7086 39.6835C31.3183 38.9624 32.3948 38.8683 33.1159 39.471Z" fill="white"/>
<path d="M16.8197 12.3966C16.0985 11.7904 16.0045 10.7139 16.6107 9.9893L23.1949 2.14389C23.8011 1.42275 24.8776 1.32869 25.6022 1.93487C26.3234 2.54104 26.4174 3.61752 25.8112 4.33866L19.227 12.184C18.6173 12.9052 17.5408 13.0027 16.8197 12.3966Z" fill="white"/>
<path d="M33.1139 12.3966C33.8351 11.7904 33.9291 10.7139 33.3229 9.9893L26.7386 2.14389C26.1325 1.42275 25.056 1.32869 24.3314 1.93487C23.6102 2.54104 23.5162 3.61752 24.1223 4.33866L30.7066 12.1841C31.3163 12.9052 32.3928 13.0027 33.1139 12.3966Z" fill="white"/>
<path d="M0.5 25.8211C0.5 27.1761 1.6 28.2711 2.95 28.2711H47.05C48.405 28.2711 49.5 27.1761 49.5 25.8211C49.5 24.4711 48.405 23.3711 47.05 23.3711H2.95C1.6 23.3711 0.5 24.4661 0.5 25.8211Z" fill="white"/>
<path d="M38.6019 33.9167C39.2081 34.6378 40.2846 34.7319 41.0092 34.1257L48.8546 27.5414C49.5757 26.9352 49.6698 25.8587 49.0636 25.1341C48.4574 24.413 47.381 24.3189 46.6598 24.9251L38.8144 31.5094C38.0933 32.119 37.9992 33.1955 38.6019 33.9167Z" fill="white"/>
<path d="M38.6019 17.5755C39.2081 16.8544 40.2846 16.7603 41.0092 17.3665L48.8546 23.9508C49.5757 24.5569 49.6698 25.6334 49.0636 26.358C48.4574 27.0792 47.381 27.1732 46.6598 26.5671L38.8144 19.9828C38.0933 19.3731 37.9992 18.2966 38.6019 17.5755Z" fill="white"/>
<path d="M11.3634 33.9811C10.7572 34.7022 9.68072 34.7963 8.9561 34.1901L1.11068 27.6058C0.389545 26.9997 0.295484 25.9232 0.901657 25.1986C1.50783 24.4774 2.58431 24.3834 3.30545 24.9895L11.1509 31.5738C11.872 32.1835 11.9696 33.26 11.3634 33.9811Z" fill="white"/>
<path d="M11.3634 17.6497C10.7572 16.9286 9.68072 16.8345 8.9561 17.4407L1.11069 24.025C0.389544 24.6312 0.295483 25.7077 0.901656 26.4323C1.50783 27.1534 2.58431 27.2475 3.30545 26.6413L11.1509 20.057C11.872 19.4474 11.9696 18.3709 11.3634 17.6497Z" fill="white"/>
</g>
</svg>
