<svg width="256" height="256" viewBox="0 0 256 256" fill="none" xmlns="http://www.w3.org/2000/svg">
<path d="M217.5 42.2001C216.6 42.4001 215.1 42.9001 214.3 43.3001C213.4 43.8001 190.1 66.7001 158.3 98.5001L103.9 152.9L75.4997 124.6C55.6997 104.9 46.3997 96.0001 44.9997 95.2001C43.3997 94.4001 42.0997 94.1001 39.6997 94.1001C34.6997 94.1001 33.2997 95.1001 21.5997 106.9C11.8997 116.7 11.3997 117.2 10.6997 119.8C9.69973 123.1 9.99973 126.5 11.2997 129.1C11.8997 130.2 28.7997 147.4 53.1997 171.8C97.5997 216.3 94.9997 214 100.3 214C105.6 214 101.7 217.7 176.2 143.2C239.1 80.2001 244.6 74.6001 245.3 72.5001C246.2 69.6001 246.2 67.0001 245.3 64.1001C244.7 62.2001 243.3 60.5001 235.8 53.0001C230.2 47.3001 226.3 43.8001 225.1 43.3001C222.9 42.2001 219.7 41.7001 217.5 42.2001Z" fill="white"/>
</svg>
