<svg width="256" height="256" viewBox="0 0 256 256" fill="none" xmlns="http://www.w3.org/2000/svg">
<path d="M236.9 164.3H227.8H191.5C181.5 164.3 173.3 156.2 173.3 146.1C173.3 136.1 181.4 127.9 191.5 127.9H227.8H236.9C241.9 127.9 246 132 246 137V155.2C246 160.2 241.9 164.3 236.9 164.3ZM191.5 137.1C186.5 137.1 182.4 141.2 182.4 146.2C182.4 151.2 186.5 155.3 191.5 155.3C196.5 155.3 200.6 151.2 200.6 146.2C200.6 141.1 196.6 137.1 191.5 137.1ZM164.3 137.1V155.3C164.3 165.3 172.4 173.5 182.5 173.5H227.9V209.8C227.9 219.8 219.8 228 209.7 228H28.2C18.2 228 10 219.9 10 209.8V100.8V82.5999V55.4C10 40.3 22.2 28.2 37.2 28.2H173.4H191.6H218.8C223.8 28.2 227.9 32.2999 227.9 37.2999C227.9 42.2999 223.8 46.4 218.8 46.4H191.6H173.4H37.2C32.2 46.4 28.1 50.5 28.1 55.5C28.1 60.5 32.2 64.5999 37.2 64.5999H182.4H191.5H209.7C219.7 64.5999 227.9 72.7 227.9 82.8V91.9V101V110.1V119.2H182.5C172.4 118.9 164.3 127 164.3 137.1Z" fill="#CA9969"/>
</svg>
