<svg width="256" height="256" viewBox="0 0 256 256" fill="none" xmlns="http://www.w3.org/2000/svg">
<path d="M28.8 57.6C21.6 59.3 15.3 64.3 12 71L10 75V80.7C10 85.7 10.1 86.8 11.2 89.4C11.9 91 13.1 93.4 14 94.6C14.9 95.8 39.2 119.3 68.1 146.8L120.5 196.8L124.3 198C128.9 199.5 131.4 199.3 134.6 197.4C137.8 195.5 240.5 96.6 242.5 93.6C245 89.7 246 86 246 81.1C246 74 243.8 69.1 238.6 64C230.5 56.2 217.7 55 208.2 60.9C206.9 61.7 190.1 77.6 170.8 96.2C132.3 133.3 133 132.7 128.1 132.1C122.1 131.5 123.4 132.6 85.2 96C66 77.5 49.1 61.7 47.8 60.9C42.6 57.6 34.8 56.3 28.8 57.6Z" fill="#12110F"/>
</svg>
