<svg width="256" height="256" viewBox="0 0 256 256" fill="none" xmlns="http://www.w3.org/2000/svg">
<path d="M151.7 10.5997C148.6 11.6997 145.7 14.3997 141.8 20.0997L138.5 24.8997L173.6 49.8997C207.6 74.1997 208.7 74.8997 209.5 74.0997C210 73.5997 211.9 70.8997 213.8 68.0997C217.6 62.3997 218.6 59.4997 218.1 55.2997C217.7 52.6997 216.1 49.1997 214.5 47.7997C213 46.3997 163.4 11.8997 161.5 10.8997C159.3 9.79969 154.4 9.69969 151.7 10.5997Z" fill="white"/>
<path d="M126.5 43.8994C125.3 44.5994 117 56.0994 88.5001 96.8994C68.5001 125.499 51.5001 149.899 50.8001 150.899L49.4001 152.799L60.3001 160.599C68.6001 166.499 113.8 198.199 119.4 202.099C120.1 202.599 120.7 201.999 125.1 195.599C127.8 191.799 144 168.399 161 143.799C178.1 119.199 193 97.7994 194.1 96.1994C196.3 92.9994 196.5 91.5994 195.3 88.0994C194.2 84.9994 191.6 82.2994 185.3 77.9994C176 71.6994 156.2 57.9994 146.9 51.2994C142.1 47.7994 137.2 44.6994 136.1 44.1994C133 42.9994 128.5 42.7994 126.5 43.8994Z" fill="white"/>
<path d="M41.8001 206.9C41.7001 207.5 40.6001 216 39.5001 225.9C37.2001 244.8 37.2001 246 39.2001 246C39.8001 246 74.4001 228.2 75.6001 227.3C75.9001 227 73.1001 223.7 69.9001 220.5C64.0001 214.7 54.1001 208.9 46.6001 206.8C42.4001 205.6 42.1001 205.6 41.8001 206.9Z" fill="white"/>
</svg>
