<svg width="100" height="100" viewBox="0 0 100 100" fill="none" xmlns="http://www.w3.org/2000/svg">
<path d="M43.444 1.46595C43.027 1.75095 42.479 2.25495 42.238 2.58395C41.777 3.19795 41.777 3.43895 41.712 14.71L41.646 26.2L47.194 26.156L52.742 26.09L52.808 15.126C52.874 2.84695 52.874 2.84695 51.361 1.68395C50.615 1.11395 50.484 1.09195 47.392 1.02595C44.343 0.960953 44.145 0.982953 43.444 1.46595Z" fill="#eb5a46"/>
<path d="M27.327 6.68395C26.516 6.94695 25.463 7.91195 25.09 8.81095C24.849 9.38095 24.783 11.267 24.783 17.867V26.2H30.375H35.967V17.889C35.967 12.539 35.879 9.33695 35.726 8.94295C35.397 8.02195 34.235 6.92595 33.336 6.68495C32.414 6.42095 28.204 6.42095 27.327 6.68395Z" fill="#eb5a46"/>
<path d="M60.613 6.88204C60.109 7.10104 59.473 7.62804 59.188 8.02204L58.662 8.76804V22.604V36.44L59.32 37.514C60.109 38.764 61.798 39.882 63.223 40.101C66.052 40.54 68.859 38.61 69.494 35.847C69.647 35.233 69.713 30.124 69.713 22.361C69.713 9.20404 69.691 8.83204 68.704 7.73504C67.871 6.77004 66.731 6.46304 64.033 6.46304C62.038 6.46504 61.315 6.55304 60.613 6.88204Z" fill="#eb5a46"/>
<path d="M77.2119 15.39C76.8169 15.587 76.2249 16.135 75.8959 16.64L75.3259 17.517V29.467C75.3259 41.155 75.3259 41.462 75.7869 42.426C76.9929 45.035 79.8869 46.307 82.7159 45.452C83.8339 45.123 85.3689 43.764 85.9389 42.58C86.3999 41.659 86.3999 41.352 86.3999 29.555V17.495L85.8959 16.749C85.6329 16.354 85.0629 15.784 84.6679 15.521C83.9879 15.061 83.6809 15.017 80.9399 15.017C78.6159 15.017 77.8039 15.105 77.2119 15.39Z" fill="#eb5a46"/>
<path d="M17.13 32.208C15.968 32.625 14.696 33.831 14.126 35.059L13.6 36.177V45.167C13.6 55.056 13.688 55.889 14.916 58.192C15.289 58.872 19.104 63.806 23.402 69.178C31.625 79.462 32.699 80.931 33.927 83.584C35.286 86.522 35.791 88.956 35.9 93.188C36.01 97.179 36.141 97.881 37.018 98.56C37.544 98.999 38.005 98.999 57.038 98.999H76.532L77.234 98.363L77.958 97.727L78.068 91.499C78.178 84.899 78.199 84.833 79.362 83.583C80.151 82.728 80.436 82.596 82.366 82.223C84.296 81.85 85.304 81.214 85.962 79.921C86.379 79.088 86.401 78.605 86.401 66.94C86.401 59.265 86.313 54.507 86.182 54.003C85.83 52.798 84.69 51.439 83.44 50.737C82.826 50.408 77.629 48.72 71.599 46.922C60.131 43.457 59.166 43.26 57.412 44.027C56.973 44.202 54.824 45.693 52.654 47.338C47.171 51.461 47.588 51.285 43.202 51.373C38.97 51.461 38.816 51.527 38.816 53.215C38.816 53.785 38.75 54.268 38.662 54.268C38.552 54.246 37.456 53.676 36.184 52.996C33.531 51.549 33.114 51 33.114 48.983C33.114 48.062 33.246 47.558 33.618 47.01C34.451 45.782 34.714 45.716 40.065 45.716C44.253 45.716 45.108 45.65 46.292 45.299C48.748 44.532 50.612 42.909 51.796 40.563C52.585 39.006 52.849 37.515 52.849 34.533V31.902L35.373 31.924C22.218 31.923 17.7 32.011 17.13 32.208Z" fill="#eb5a46"/>
</svg>
