<svg width="256" height="256" viewBox="0 0 256 256" fill="none" xmlns="http://www.w3.org/2000/svg">
<path d="M10 128V246H128H246V128V10H128H10V128ZM227.8 55.4V82.6H128H28.2V55.4V28.2H128H227.8V55.4ZM227.8 128V155.2H128H28.2V128V100.8H128H227.8V128ZM227.8 200.6V227.8H128H28.2V200.6V173.4H128H227.8V200.6Z" fill="#CA9969"/>
<path d="M91.7 50.7992V64.3992H128H164.3V50.7992V37.1992H155.2C147.7 37.1992 146.1 37.8992 146.1 41.6992C146.1 45.7992 144.5 46.1992 127.9 46.1992C111.3 46.1992 109.7 45.6992 109.7 41.6992C109.7 37.7992 108.1 37.1992 100.6 37.1992H91.5L91.7 50.7992Z" fill="#CA9969"/>
<path d="M91.7 123.5V137.1H128H164.3V123.5V109.9H155.2C147.7 109.9 146.1 110.6 146.1 114.4C146.1 118.5 144.5 118.9 127.9 118.9C111.3 118.9 109.7 118.4 109.7 114.4C109.7 110.5 108.1 109.9 100.6 109.9H91.5L91.7 123.5Z" fill="#CA9969"/>
<path d="M91.7 196.1V209.7H128H164.3V196.1V182.5H155.2C147.7 182.5 146.1 183.2 146.1 187C146.1 191.1 144.5 191.5 127.9 191.5C111.3 191.5 109.7 191 109.7 187C109.7 183.1 108.1 182.5 100.6 182.5H91.5L91.7 196.1Z" fill="#CA9969"/>
</svg>
