<svg width="100" height="100" viewBox="0 0 100 100" fill="none" xmlns="http://www.w3.org/2000/svg">
<path d="M64.3601 37.4901C62.8901 37.1301 61.4101 38.0501 61.0301 39.5501C60.6601 41.0401 61.5501 42.5601 63.0101 42.9201C64.4801 43.2801 65.9601 42.3601 66.3301 40.8601C66.7001 39.3601 65.8101 37.8501 64.3601 37.4901Z" fill="white"/>
<path d="M92.22 55.92L91.63 53.93L91.02 51.99L90.28 50.19L89.59 48.39L88.88 46.64L88.24 44.91L87.7 43.11L87.27 41.31L87.36 40.48L87.74 39.7L88.13 38.87L88.23 38.09L87.89 36.51L87.49 34.94L87.07 33.34L86.57 31.79L86.05 30.23L85.5 28.69L84.91 27.12L84.29 25.6L83.61 24.16L82.87 22.69L82.16 21.24L84.38 19.87L83.6 18.52L82.72 17.26L81.85 15.99L80.97 14.78L80.14 13.77L79.26 12.8L78.39 11.92L77.48 11.04L76.57 10.21L78.6 9.44L77.55 8.73L76.54 7.99L75.47 7.35L74.41 6.74L73.3 6.14L72.18 5.6L71.02 5.08L69.79 4.59L68.6 4.1L67.38 3.65L65.92 3.18L64.48 2.8L63 2.4L61.56 2.07L60.04 1.76L58.54 1.52L57.03 1.33L55.51 1.18L54.02 1.08L52.5 1.04L51.02 1L49.45 1.05L47.94 1.09L46.44 1.19L44.92 1.34L43.43 1.53L41.87 1.77L40.33 2.08L38.77 2.37L37.21 2.69L35.67 3.14L34.11 3.57L32.55 4.07L31.05 4.59L29.58 5.18L28.14 5.87L26.67 6.53L25.28 7.26L23.9 8.08L22.6 8.91L21.34 9.83L20.11 10.8L19 11.77L17.93 12.79L16.92 13.86L15.94 14.97L15.02 16.2L14.09 17.36L13.26 18.62L12.48 19.93L11.72 21.25L11.03 22.59L10.44 23.97L9.85998 25.33L9.36998 26.75L8.93998 28.14L8.59998 29.61L8.31998 31.01L7.88998 34.02L7.72998 36.98L7.79998 39.94L8.08998 42.85L8.55998 45.77L9.33998 48.63L10.31 51.41L17.61 63.26C29.99 76.02 29.48 88.76 29.48 88.76L29.17 91.28L29.4 98.09L71.83 99.01L72.01 98.22V95.76L72.1 93.28L72.29 87.74L72.57 84.93L72.71 84.26L72.98 83.72L73.26 83.24L73.64 82.84L74.14 82.56L74.71 82.36L75.35 82.15L76.03 82.05L76.91 81.96L77.74 81.91H77.94L78.77 82L79.55 82.05L80.38 82.15L81.13 82.22L82.01 82.32L82.84 82.41L80.76 82.45L81.68 82.55L82.61 82.59L83.63 82.64L84.22 82.59L84.83 82.44L85.46 82.2L86.06 81.9L86.63 81.53L87.13 81.08L87.54 80.6L87.9 80.1L88.14 79.04L88.01 77.88L87.79 76.72V75.6L87.96 75.11L88.19 74.68L88.43 74.23L88.72 73.85L89.02 73.45L89.26 73.02L89.45 72.57L89.49 72.09L89.45 71.55L89.36 71.07L89.22 70.58L88.98 70.11L88.63 69.66L88.25 69.24L87.8 68.91L87.28 68.56L87.85 68.28L88.39 67.94L88.94 67.53L89.31 67.15L89.64 66.7L89.85 66.23L89.95 65.78L89.85 65.31L89.31 63.6L88.98 62.04L88.77 60.59V59.17L89.59 58.84L90.33 58.51L90.97 58.15L91.49 57.77L91.89 57.34L92.13 56.89L92.27 56.42L92.22 55.92ZM50.67 45.48C50.48 45.66 45.55 43.56 45.55 43.56L43.31 44.47C43.31 44.47 41.48 49.38 41.2 49.38H37.2C36.93 49.38 34.95 44.48 34.95 44.48L32.72 43.57C32.72 43.57 27.87 45.78 27.68 45.59L24.84 42.81C24.66 42.64 26.8 37.8 26.8 37.8L25.88 35.61C25.88 35.61 20.85 33.82 20.85 33.55V29.62C20.85 29.37 25.86 27.43 25.86 27.43L26.78 25.24C26.78 25.24 24.52 20.5 24.71 20.31L27.54 17.54C27.73 17.35 32.68 19.45 32.68 19.45L34.91 18.55C34.91 18.55 36.74 13.64 37.02 13.64H41.03C41.3 13.64 43.27 18.54 43.27 18.54L45.51 19.44C45.51 19.44 50.36 17.23 50.55 17.42L53.39 20.2C53.58 20.39 51.43 25.23 51.43 25.23L52.35 27.42C52.35 27.42 57.37 29.2 57.37 29.48V33.41C57.37 33.67 52.36 35.6 52.36 35.6L51.44 37.79C51.44 37.79 53.7 42.53 53.5 42.73L50.67 45.48ZM71.75 43.14C71.72 43.26 69.22 43.61 69.22 43.61L68.54 44.54C68.54 44.54 69.01 47.03 68.9 47.11L67.3 48.11C67.19 48.18 65.2 46.64 65.2 46.64L64.08 46.81C64.08 46.81 62.68 48.94 62.56 48.91L60.74 48.46C60.62 48.43 60.3 45.89 60.3 45.89L59.4 45.21C59.4 45.21 56.94 45.72 56.88 45.61L55.92 43.97C55.85 43.86 57.39 41.82 57.39 41.82L57.23 40.68C57.23 40.68 55.15 39.27 55.18 39.15L55.64 37.29C55.67 37.16 58.18 36.81 58.18 36.81L58.84 35.88C58.84 35.88 58.37 33.38 58.48 33.32L60.09 32.32C60.2 32.26 62.2 33.8 62.2 33.8L63.31 33.63C63.31 33.63 64.71 31.51 64.85 31.54L66.66 31.99C66.78 32.02 67.11 34.56 67.11 34.56L68.02 35.24C68.02 35.24 70.47 34.74 70.54 34.85L71.51 36.48C71.57 36.59 70.04 38.63 70.04 38.63L70.2 39.77C70.2 39.77 72.27 41.18 72.24 41.31L71.75 43.14Z" fill="white"/>
<path d="M39.12 25.79C35.89 25.79 33.26 28.35 33.26 31.51C33.26 34.67 35.89 37.24 39.12 37.24C42.34 37.24 44.97 34.67 44.97 31.51C44.97 28.35 42.34 25.79 39.12 25.79Z" fill="white"/>
</svg>
