<svg width="256" height="257" viewBox="0 0 256 257" fill="none" xmlns="http://www.w3.org/2000/svg">
<path d="M226 10.9993C224.6 11.4993 222.5 13.2993 218.8 16.8993L213.6 22.0993L224.2 32.6993L234.8 43.2993L239.7 38.4993C245.3 32.9993 245.9 31.8993 245.9 28.7993C245.9 25.1993 244.3 22.4993 238.9 17.1993C232.8 10.9993 229.9 9.59927 226 10.9993Z" fill="#CA9969"/>
<path d="M186.399 14.3987C184.499 14.9987 183.1 16.0987 179.1 20.0987C176.4 22.7987 173.8 25.8987 173.3 26.9987C172.1 29.4987 171.9 32.4987 172.5 34.4987C172.9 35.6987 180.2 43.2987 198.7 61.7987C222.9 85.8987 224.6 87.4987 226.5 87.7987C227.9 87.9987 229.4 87.7987 231.3 87.2987C233.7 86.5987 234.7 85.8987 239 81.5987C241.8 78.8987 244.4 75.8987 245 74.6987C246.5 71.6987 246.3 68.3987 244.6 65.6987C242.8 62.9987 195.5 15.7987 193.6 14.8987C191.2 13.7987 188.899 13.5987 186.399 14.3987Z" fill="#CA9969"/>
<path d="M145.2 24.0994C142.9 25.2994 129.1 39.2994 128 41.4994C126.6 44.3994 126.7 48.5994 128.2 51.5994C129.1 53.3994 138.2 62.7994 167.9 92.3994C189.1 113.599 207.2 131.299 208.1 131.699C210.3 132.799 214.8 133.199 217.1 132.399C218.5 131.999 221.1 129.699 227.1 123.799C231.5 119.399 235.5 115.099 235.9 114.199C237 111.699 236.7 109.199 235.1 105.999C233.9 103.499 228.1 97.5994 194.7 64.1994C165.1 34.5994 155.1 24.9994 153.4 24.1994C151 23.0994 147.3 22.8994 145.2 24.0994Z" fill="#CA9969"/>
<path d="M117.6 118.1L85.5996 150.1L96.1996 160.7L106.8 171.3L138.8 139.3L170.8 107.3L160.2 96.6996L149.6 86.0996L117.6 118.1Z" fill="#CA9969"/>
<path d="M41.1002 128.4C39.0002 129.3 24.5002 143.6 23.5002 145.8C22.5002 148 22.6002 151.6 23.8002 154.2C24.6002 155.9 34.2002 165.8 63.8002 195.5C97.2002 228.9 103.1 234.7 105.6 235.9C108.7 237.5 111.3 237.7 113.8 236.7C114.7 236.3 119 232.4 123.4 227.9C129.4 221.8 131.6 219.3 132 217.9C132.8 215.6 132.4 211.1 131.3 208.9C130.9 208 113.1 189.9 92.0002 168.7C62.4002 139 53.0002 129.9 51.2002 129C48.2002 127.4 43.8002 127.3 41.1002 128.4Z" fill="#CA9969"/>
<path d="M27.8001 173.1C25.3001 174 22.5001 176.2 18.5001 180.5C13.1001 186.2 12.2001 189.4 14.4001 194C15.4001 195.9 62.5001 243.2 65.2001 245C67.9001 246.7 71.2001 246.9 74.2001 245.4C75.3001 244.8 78.4001 242.2 81.1001 239.4C85.4001 235.1 86.1001 234 86.8001 231.7C87.3001 229.9 87.5001 228.3 87.3001 226.9C87.0001 225 85.4001 223.3 61.5001 199.3C46.9001 184.7 35.4001 173.5 34.5001 173.1C32.7001 172.5 29.9001 172.4 27.8001 173.1Z" fill="#CA9969"/>
<path d="M16.0996 219.5C10.1996 225.5 9.39958 227 10.1996 230.6C10.7996 233.4 12.6996 235.9 17.3996 240.5C21.8996 244.8 24.9996 246.5 28.1996 246.5C31.2996 246.5 32.3996 245.8 37.8996 240.3L42.6996 235.4L32.0996 224.8L21.3996 214.1L16.0996 219.5Z" fill="#CA9969"/>
</svg>
